<?xml version="1.0" encoding="UTF-8" standalone="no"?>
<!DOCTYPE svg PUBLIC "-//W3C//DTD SVG 1.1//EN" "http://www.w3.org/Graphics/SVG/1.1/DTD/svg11.dtd">
<svg width="100%" height="100%" viewBox="0 0 767 125" version="1.1" xmlns="http://www.w3.org/2000/svg"
    xmlns:xlink="http://www.w3.org/1999/xlink" xml:space="preserve" xmlns:serif="http://www.serif.com/"
    style="fill-rule:evenodd;clip-rule:evenodd;stroke-linejoin:round;stroke-miterlimit:2;">
    <g transform="matrix(1,0,0,1,-193.177,-460.597)">
        <g>
            <g transform="matrix(3.01946,0,0,3.01946,259.429,520.957)">
                <path
                    d="M0,1.398C6.557,-1.336 14.433,-1.06 14.889,-1.04C15.415,-1.021 15.847,-1.181 16.106,-1.498C16.365,-1.815 16.438,-2.271 16.311,-2.783C16.294,-2.852 14.834,-8.6 11.672,-12.673C11.014,-13.52 10.285,-14.295 9.479,-14.931C8.002,-16.093 7.26,-16.466 7.252,-16.47C6.785,-16.696 6.335,-16.719 5.989,-16.535C5.642,-16.349 5.41,-15.962 5.336,-15.445C5.298,-15.177 4.364,-8.829 1.158,-4.757C-0.476,-2.682 -2.771,-1.225 -5.258,-0.2C-11.931,2.551 -19.995,2.175 -20.456,2.15C-20.496,2.148 -20.536,2.147 -20.575,2.147C-21.046,2.147 -21.433,2.302 -21.672,2.59C-21.932,2.902 -22.007,3.355 -21.884,3.867C-21.867,3.937 -20.42,9.791 -17.226,13.917C-16.568,14.767 -15.837,15.545 -15.028,16.183C-13.456,17.421 -12.519,17.873 -12.509,17.877C-12.038,18.098 -11.584,18.117 -11.236,17.925C-10.887,17.736 -10.656,17.345 -10.586,16.827C-10.549,16.553 -9.641,10.081 -6.394,5.958C-4.765,3.889 -2.476,2.43 0,1.398"
                    style="fill:url(#_Linear1);fill-rule:nonzero;" />
            </g>
            <g transform="matrix(3.01946,0,0,3.01946,260.947,533.061)">
                <path
                    d="M0,17.11C0,17.11 -1.068,17.36 -3.224,17.36C-5.793,17.36 -8.477,16.458 -10.773,15.377C-10.005,14.902 -9.489,14.067 -9.352,13.053C-9.343,12.991 -8.474,6.786 -5.519,3.034C-4.44,1.665 -3.001,0.593 -1.393,-0.25C-1.708,0.851 -1.891,1.975 -1.891,3.108C-1.891,8.178 1.419,13.796 1.419,13.796C2.269,15.238 1.63,16.73 0,17.11ZM-6.108,-23.812C-6.108,-23.812 -5.258,-23.999 -3.223,-23.999C-0.603,-23.999 2.138,-23.063 4.456,-21.963C3.73,-21.489 3.238,-20.68 3.098,-19.702C3.089,-19.64 2.195,-13.555 -0.722,-9.851C-1.803,-8.478 -3.244,-7.408 -4.856,-6.568C-4.529,-7.686 -4.341,-8.829 -4.341,-9.982C-4.341,-14.989 -7.553,-20.524 -7.553,-20.524C-8.393,-21.972 -7.743,-23.452 -6.108,-23.812ZM38.019,10.581C35.903,10.581 34.005,10.254 32.322,9.603C30.628,8.947 29.193,7.983 28.017,6.711C26.845,5.445 25.945,3.899 25.318,2.074C24.697,0.263 24.384,-1.819 24.384,-4.17C24.384,-6.527 24.745,-8.613 25.463,-10.428C26.184,-12.251 27.172,-13.795 28.423,-15.06C29.678,-16.328 31.15,-17.289 32.841,-17.944C34.524,-18.596 36.331,-18.922 38.259,-18.922C39.423,-18.922 40.479,-18.834 41.427,-18.657C42.371,-18.482 43.193,-18.287 43.895,-18.07C44.608,-17.851 45.198,-17.617 45.664,-17.37C46.121,-17.129 46.443,-16.954 46.631,-16.847C46.765,-16.77 46.824,-16.608 46.772,-16.463L45.297,-12.356C45.264,-12.266 45.193,-12.194 45.101,-12.162C45.011,-12.131 44.91,-12.142 44.828,-12.194C44.208,-12.581 43.323,-12.947 42.174,-13.295C41.019,-13.645 39.767,-13.82 38.418,-13.82C37.264,-13.82 36.187,-13.622 35.187,-13.224C34.195,-12.83 33.336,-12.239 32.612,-11.45C31.882,-10.657 31.315,-9.657 30.905,-8.453C30.49,-7.234 30.284,-5.819 30.284,-4.21C30.284,-2.779 30.446,-1.464 30.771,-0.266C31.092,0.913 31.584,1.933 32.25,2.791C32.911,3.642 33.749,4.301 34.764,4.771C35.79,5.246 37.022,5.479 38.458,5.479C40.199,5.479 41.615,5.307 42.707,4.956C43.801,4.604 44.649,4.273 45.249,3.961C45.331,3.917 45.429,3.913 45.515,3.948C45.602,3.983 45.669,4.054 45.698,4.143L47.054,8.25C47.098,8.386 47.048,8.535 46.928,8.614C46.594,8.837 46.143,9.061 45.571,9.284C45.017,9.501 44.361,9.71 43.604,9.913C42.847,10.116 41.996,10.278 41.05,10.4C40.108,10.521 39.097,10.581 38.019,10.581ZM67.604,-0.781C67.604,0.906 67.358,2.443 66.868,3.83C66.374,5.229 65.674,6.421 64.769,7.408C63.861,8.398 62.769,9.169 61.49,9.718C60.216,10.266 58.812,10.542 57.278,10.542C55.743,10.542 54.344,10.266 53.084,9.718C51.819,9.168 50.733,8.398 49.826,7.408C48.922,6.422 48.215,5.231 47.708,3.833C47.205,2.445 46.951,0.907 46.951,-0.781C46.951,-2.469 47.205,-4.001 47.708,-5.376C48.215,-6.761 48.929,-7.946 49.848,-8.932C50.769,-9.923 51.861,-10.685 53.126,-11.221C54.387,-11.756 55.77,-12.025 57.278,-12.025C58.784,-12.025 60.174,-11.757 61.448,-11.222C62.727,-10.685 63.821,-9.921 64.729,-8.931C65.633,-7.944 66.34,-6.76 66.846,-5.376C67.35,-4.001 67.604,-2.469 67.604,-0.781ZM62.023,-0.781C62.023,-2.774 61.605,-4.354 60.749,-5.517C59.92,-6.642 58.762,-7.201 57.278,-7.201C55.793,-7.201 54.635,-6.642 53.806,-5.517C52.951,-4.354 52.532,-2.774 52.532,-0.781C52.532,1.239 52.951,2.839 53.807,4.015C54.635,5.153 55.793,5.718 57.278,5.718C58.761,5.718 59.919,5.153 60.748,4.015C61.604,2.839 62.023,1.239 62.023,-0.781ZM81.839,-1.299C81.839,-3.406 81.589,-4.931 81.062,-5.869C80.569,-6.747 79.638,-7.161 78.29,-7.161C77.77,-7.161 77.199,-7.122 76.575,-7.044C76.101,-6.985 75.715,-6.933 75.419,-6.888L75.419,9.665C75.419,9.841 75.276,9.983 75.1,9.983L70.276,9.983C70.1,9.983 69.957,9.841 69.957,9.665L69.957,-10.509C69.957,-10.652 70.052,-10.777 70.188,-10.816C71.128,-11.084 72.356,-11.34 73.874,-11.582C75.392,-11.824 76.997,-11.944 78.688,-11.944C80.173,-11.944 81.388,-11.748 82.337,-11.363C83.202,-11.012 83.937,-10.557 84.542,-10.003C84.805,-10.178 85.116,-10.36 85.477,-10.552C85.942,-10.798 86.46,-11.024 87.035,-11.228C87.605,-11.432 88.211,-11.602 88.849,-11.739C89.496,-11.876 90.149,-11.944 90.809,-11.944C92.483,-11.944 93.861,-11.7 94.946,-11.22C96.052,-10.73 96.918,-10.042 97.548,-9.16C98.171,-8.288 98.602,-7.236 98.838,-6.004C99.067,-4.803 99.182,-3.487 99.182,-2.057L99.182,9.665C99.182,9.841 99.04,9.983 98.864,9.983L94.039,9.983C93.864,9.983 93.721,9.841 93.721,9.665L93.721,-1.299C93.721,-3.407 93.477,-4.933 92.962,-5.871C92.481,-6.749 91.542,-7.161 90.172,-7.161C89.439,-7.161 88.744,-7.041 88.088,-6.802C87.548,-6.604 87.118,-6.413 86.799,-6.225C86.979,-5.61 87.106,-4.964 87.179,-4.284C87.26,-3.529 87.3,-2.72 87.3,-1.858L87.3,9.665C87.3,9.841 87.158,9.983 86.982,9.983L82.157,9.983C81.981,9.983 81.839,9.841 81.839,9.665L81.839,-1.299ZM101.297,-0.662C101.297,-2.54 101.578,-4.187 102.136,-5.603C102.698,-7.028 103.446,-8.213 104.378,-9.158C105.314,-10.107 106.387,-10.822 107.597,-11.304C108.805,-11.784 110.041,-12.025 111.304,-12.025C114.277,-12.025 116.593,-11.093 118.259,-9.248C119.911,-7.418 120.753,-4.693 120.753,-1.06C120.753,-0.79 120.746,-0.487 120.732,-0.15C120.719,0.189 120.699,0.494 120.671,0.766C120.655,0.928 120.518,1.053 120.354,1.053L106.951,1.053C107.125,2.468 107.664,3.58 108.582,4.381C109.583,5.256 111.038,5.678 112.939,5.678C114.083,5.678 115.13,5.575 116.08,5.367C117.026,5.16 117.771,4.94 118.315,4.708C118.405,4.669 118.508,4.674 118.594,4.721C118.68,4.768 118.739,4.853 118.755,4.949L119.393,8.896C119.415,9.034 119.345,9.17 119.221,9.233C118.943,9.371 118.562,9.518 118.077,9.67C117.603,9.819 117.06,9.955 116.449,10.077C115.844,10.198 115.19,10.299 114.49,10.38C113.787,10.462 113.07,10.502 112.341,10.502C110.46,10.502 108.826,10.22 107.437,9.661C106.033,9.098 104.878,8.312 103.97,7.307C103.063,6.304 102.389,5.123 101.949,3.762C101.514,2.417 101.297,0.942 101.297,-0.662ZM115.284,-3.133C115.259,-3.648 115.173,-4.142 115.026,-4.614C114.853,-5.171 114.6,-5.654 114.267,-6.062C113.937,-6.464 113.534,-6.782 113.058,-7.014C112.579,-7.247 112.007,-7.36 111.343,-7.36C110.653,-7.36 110.049,-7.234 109.532,-6.976C109.013,-6.716 108.575,-6.377 108.217,-5.957C107.855,-5.534 107.575,-5.048 107.376,-4.5C107.214,-4.053 107.091,-3.597 107.009,-3.133L115.284,-3.133ZM135.325,-6.539C134.935,-6.669 134.396,-6.806 133.706,-6.949C133.02,-7.091 132.225,-7.161 131.319,-7.161C130.805,-7.161 130.258,-7.11 129.68,-7.006C129.255,-6.931 128.924,-6.863 128.687,-6.802L128.687,9.665C128.687,9.841 128.544,9.983 128.368,9.983L123.544,9.983C123.368,9.983 123.226,9.841 123.226,9.665L123.226,-10.191C123.226,-10.324 123.308,-10.443 123.433,-10.489C124.375,-10.839 125.552,-11.17 126.965,-11.479C128.381,-11.789 129.951,-11.944 131.678,-11.944C132.005,-11.944 132.387,-11.924 132.824,-11.884C133.256,-11.843 133.687,-11.789 134.119,-11.721C134.553,-11.654 134.973,-11.572 135.378,-11.478C135.789,-11.382 136.117,-11.292 136.364,-11.211C136.517,-11.16 136.607,-11.002 136.575,-10.844L135.738,-6.777C135.72,-6.688 135.664,-6.611 135.585,-6.565C135.506,-6.52 135.411,-6.511 135.325,-6.539ZM156.717,-0.741C156.717,0.888 156.505,2.381 156.085,3.739C155.659,5.109 155.049,6.287 154.254,7.274C153.453,8.268 152.451,9.043 151.248,9.596C150.053,10.146 148.699,10.422 147.188,10.422C146.172,10.422 145.239,10.298 144.388,10.051C143.765,9.87 143.223,9.673 142.762,9.463L142.762,17.041C142.762,17.217 142.619,17.36 142.443,17.36L137.619,17.36C137.443,17.36 137.301,17.217 137.301,17.041L137.301,-10.509C137.301,-10.654 137.396,-10.78 137.536,-10.817C138.528,-11.085 139.747,-11.34 141.195,-11.581C142.647,-11.823 144.179,-11.944 145.792,-11.944C147.484,-11.944 148.997,-11.684 150.334,-11.166C151.68,-10.643 152.828,-9.893 153.776,-8.917C154.723,-7.943 155.452,-6.763 155.96,-5.376C156.463,-4.002 156.717,-2.457 156.717,-0.741ZM151.136,-0.662C151.136,-2.727 150.682,-4.337 149.752,-5.484C148.834,-6.616 147.35,-7.161 145.314,-7.161C144.871,-7.161 144.407,-7.142 143.924,-7.102C143.532,-7.071 143.145,-7.008 142.762,-6.914L142.762,4.589C143.15,4.835 143.645,5.063 144.246,5.279C144.916,5.519 145.631,5.639 146.39,5.639C148.022,5.639 149.22,5.096 149.974,3.985C150.755,2.833 151.136,1.283 151.136,-0.662ZM166.64,10.382C165.168,10.355 163.949,10.189 162.982,9.89C161.985,9.581 161.192,9.134 160.601,8.557C160.004,7.974 159.583,7.25 159.341,6.381C159.108,5.546 158.99,4.594 158.99,3.525L158.99,-20.478C158.99,-20.633 159.103,-20.767 159.257,-20.792L164.081,-21.589C164.174,-21.604 164.268,-21.578 164.339,-21.518C164.411,-21.458 164.452,-21.369 164.452,-21.275L164.452,2.608C164.452,3.164 164.494,3.632 164.583,4.011C164.664,4.357 164.806,4.651 165.013,4.893C165.219,5.133 165.5,5.312 165.855,5.437C166.249,5.577 166.752,5.684 167.363,5.761C167.449,5.771 167.527,5.817 167.578,5.887C167.631,5.957 167.652,6.045 167.637,6.13L166.959,10.117C166.933,10.272 166.797,10.385 166.64,10.382ZM176.175,-12.025C177.813,-12.025 179.191,-11.816 180.311,-11.407C181.454,-10.989 182.366,-10.4 183.049,-9.647C183.733,-8.893 184.223,-7.98 184.516,-6.905C184.802,-5.857 184.946,-4.706 184.946,-3.452L184.946,9.187C184.946,9.337 184.841,9.467 184.694,9.498C183.945,9.658 182.816,9.852 181.306,10.08C179.79,10.308 178.08,10.422 176.175,10.422C174.899,10.422 173.732,10.299 172.674,10.055C171.592,9.805 170.67,9.401 169.907,8.846C169.134,8.284 168.529,7.554 168.093,6.655C167.663,5.766 167.443,4.67 167.443,3.366C167.443,2.107 167.693,1.046 168.182,0.179C168.673,-0.69 169.339,-1.398 170.18,-1.945C171.008,-2.484 171.967,-2.871 173.058,-3.106C174.129,-3.336 175.247,-3.452 176.414,-3.452C176.957,-3.452 177.527,-3.419 178.125,-3.35C178.604,-3.296 179.111,-3.21 179.644,-3.094L179.644,-3.493C179.644,-4.022 179.581,-4.527 179.455,-5.006C179.335,-5.464 179.125,-5.866 178.824,-6.215C178.524,-6.563 178.126,-6.831 177.634,-7.024C177.12,-7.224 176.473,-7.321 175.696,-7.321C174.599,-7.321 173.594,-7.243 172.68,-7.086C171.772,-6.93 171.033,-6.75 170.463,-6.542C170.373,-6.51 170.273,-6.519 170.191,-6.568C170.109,-6.616 170.053,-6.699 170.039,-6.794L169.441,-10.701C169.418,-10.852 169.506,-10.999 169.65,-11.05C170.273,-11.266 171.179,-11.484 172.37,-11.7C173.557,-11.916 174.825,-12.025 176.175,-12.025ZM176.574,5.958C177.878,5.958 178.902,5.897 179.644,5.772L179.644,0.939C179.411,0.882 179.115,0.826 178.756,0.77C178.266,0.692 177.725,0.654 177.131,0.654C176.615,0.654 176.092,0.692 175.563,0.77C175.053,0.844 174.591,0.981 174.181,1.18C173.794,1.368 173.481,1.631 173.247,1.972C173.014,2.309 172.905,2.734 172.905,3.246C172.905,4.253 173.196,4.96 173.829,5.347C174.505,5.76 175.421,5.958 176.574,5.958ZM193.758,5.878C194.965,5.878 195.848,5.745 196.402,5.455C196.879,5.206 197.108,4.771 197.108,4.163C197.108,3.574 196.834,3.092 196.302,2.707C195.694,2.266 194.688,1.791 193.289,1.272C192.401,0.949 191.587,0.606 190.847,0.243C190.087,-0.13 189.432,-0.566 188.88,-1.063C188.316,-1.57 187.871,-2.183 187.546,-2.903C187.225,-3.617 187.06,-4.49 187.06,-5.526C187.06,-7.547 187.808,-9.137 189.295,-10.302C190.753,-11.444 192.73,-12.025 195.233,-12.025C196.478,-12.025 197.668,-11.909 198.805,-11.679C199.944,-11.449 200.798,-11.224 201.368,-11.006C201.515,-10.95 201.6,-10.794 201.564,-10.64L200.687,-6.732C200.666,-6.639 200.605,-6.559 200.519,-6.517C200.433,-6.474 200.333,-6.472 200.246,-6.511C199.729,-6.744 199.07,-6.956 198.269,-7.15C197.466,-7.344 196.533,-7.44 195.473,-7.44C194.552,-7.44 193.804,-7.291 193.232,-6.98C192.732,-6.708 192.482,-6.291 192.482,-5.726C192.482,-5.429 192.53,-5.166 192.633,-4.939C192.733,-4.716 192.91,-4.512 193.155,-4.323C193.433,-4.108 193.799,-3.895 194.253,-3.681C194.723,-3.459 195.297,-3.231 195.975,-2.996L195.983,-2.993C197.139,-2.563 198.121,-2.139 198.928,-1.722C199.757,-1.293 200.442,-0.808 200.981,-0.269C201.533,0.284 201.936,0.915 202.192,1.623C202.442,2.318 202.569,3.151 202.569,4.123C202.569,6.233 201.781,7.827 200.219,8.91C198.701,9.963 196.536,10.502 193.718,10.502C191.849,10.502 190.346,10.343 189.208,10.032C188.074,9.721 187.278,9.471 186.819,9.282C186.677,9.224 186.597,9.072 186.628,8.923L187.466,4.896C187.484,4.803 187.544,4.724 187.627,4.679C187.711,4.635 187.81,4.63 187.898,4.666C188.604,4.953 189.449,5.228 190.431,5.49C191.404,5.75 192.513,5.878 193.758,5.878ZM209.627,9.983L204.803,9.983C204.627,9.983 204.484,9.841 204.484,9.665L204.484,-11.188C204.484,-11.364 204.627,-11.506 204.803,-11.506L209.627,-11.506C209.803,-11.506 209.945,-11.364 209.945,-11.188L209.945,9.665C209.945,9.841 209.803,9.983 209.627,9.983ZM210.464,-17.288C210.464,-16.284 210.131,-15.49 209.482,-14.899C208.837,-14.313 208.074,-14.019 207.195,-14.019C206.287,-14.019 205.511,-14.314 204.867,-14.899C204.218,-15.49 203.886,-16.284 203.886,-17.288C203.886,-18.32 204.219,-19.127 204.867,-19.717C205.511,-20.302 206.287,-20.597 207.195,-20.597C208.074,-20.597 208.837,-20.303 209.482,-19.717C210.131,-19.127 210.464,-18.32 210.464,-17.288ZM213.686,-10.816C214.626,-11.084 215.847,-11.34 217.351,-11.582C218.855,-11.823 220.52,-11.944 222.346,-11.944C224.096,-11.944 225.557,-11.702 226.732,-11.224C227.93,-10.736 228.881,-10.052 229.591,-9.175C230.297,-8.303 230.798,-7.25 231.088,-6.017C231.373,-4.812 231.516,-3.493 231.516,-2.057L231.516,9.665C231.516,9.841 231.374,9.983 231.198,9.983L226.373,9.983C226.197,9.983 226.054,9.841 226.054,9.665L226.054,-1.299C226.054,-2.393 225.984,-3.323 225.84,-4.092C225.703,-4.827 225.483,-5.425 225.172,-5.886C224.876,-6.324 224.473,-6.643 223.963,-6.845C223.424,-7.058 222.765,-7.161 221.987,-7.161C221.388,-7.161 220.762,-7.122 220.111,-7.044C219.616,-6.985 219.218,-6.932 218.916,-6.888L218.916,9.665C218.916,9.841 218.774,9.983 218.598,9.983L213.774,9.983C213.598,9.983 213.455,9.841 213.455,9.665L213.455,-10.509C213.455,-10.652 213.549,-10.777 213.686,-10.816Z"
                    style="fill:#000000;" />
            </g>
        </g>
    </g>
    <defs>
        <linearGradient id="_Linear1" x1="0" y1="0" x2="1" y2="0" gradientUnits="userSpaceOnUse"
            gradientTransform="matrix(38.3136,0,0,34.7149,-21.9417,0.699437)">
            <stop offset="0" style="stop-color:rgb(0,146,255);stop-opacity:1" />
            <stop offset="1" style="stop-color:rgb(0,104,255);stop-opacity:1" />
        </linearGradient>
    </defs>
</svg>